<?xml version="1.0" standalone="no"?><!DOCTYPE svg PUBLIC "-//W3C//DTD SVG 1.1//EN" "http://www.w3.org/Graphics/SVG/1.1/DTD/svg11.dtd"><svg t="1622824079436" class="icon" viewBox="0 0 1024 1024" version="1.1" xmlns="http://www.w3.org/2000/svg" p-id="1930" xmlns:xlink="http://www.w3.org/1999/xlink" width="200" height="200"><defs><style type="text/css"></style></defs><path d="M510.65664 996.544C229.12064 996.544 0.00064 767.488 0.00064 485.888A509.632 509.632 0 0 1 313.85664 14.528a24.32 24.32 0 1 1 18.752 44.864A461.12 461.12 0 0 0 48.64064 485.888c0 254.72 207.296 461.952 462.016 461.952 254.72 0 461.952-207.232 461.952-461.952A460.928 460.928 0 0 0 688.57664 59.328a24.384 24.384 0 0 1-13.12-31.808 24.448 24.448 0 0 1 31.872-13.056 509.568 509.568 0 0 1 313.984 471.424c0 281.6-229.12 510.656-510.656 510.656z" fill="#4D4D4D" p-id="1931"></path><path d="M510.65664 510.656a24.32 24.32 0 0 1-24.32-24.32V24.32a24.32 24.32 0 1 1 48.64 0v462.016c0 13.44-10.88 24.32-24.32 24.32z" fill="#4D4D4D" p-id="1932"></path></svg>