<?xml version="1.0" standalone="no"?><!DOCTYPE svg PUBLIC "-//W3C//DTD SVG 1.1//EN" "http://www.w3.org/Graphics/SVG/1.1/DTD/svg11.dtd"><svg t="1622795725174" class="icon" viewBox="0 0 1024 1024" version="1.1" xmlns="http://www.w3.org/2000/svg" p-id="3739" xmlns:xlink="http://www.w3.org/1999/xlink" width="200" height="200"><defs><style type="text/css"></style></defs><path d="M512 486.4c-134.1056 0-243.2-109.0944-243.2-243.2S377.8944 0 512 0s243.2 109.0944 243.2 243.2-109.0944 243.2-243.2 243.2z m0-435.2c-105.8688 0-192 86.1312-192 192s86.1312 192 192 192 192-86.1312 192-192S617.8688 51.2 512 51.2zM998.656 1024H25.6a25.6 25.6 0 0 1-25.6-25.6c0-251.2128 177.0496-384 512-384 333.2992 0 510.2464 131.4688 511.9872 380.2752A25.6 25.6 0 0 1 998.656 1024zM51.9296 972.8h920.1536C960.3328 768.9216 805.7088 665.6 512 665.6 218.2912 665.6 63.6544 768.9216 51.9296 972.8z" fill="#333333" p-id="3740"></path></svg>